<svg width="24" height="24" viewBox="0 0 24 24" fill="none" xmlns="http://www.w3.org/2000/svg">
<path fill-rule="evenodd" clip-rule="evenodd" d="M18.75 12.9693C18.75 16.7101 15.7279 19.7427 12 19.7427C8.27208 19.7427 5.25 16.7101 5.25 12.9693C5.25 10.44 6.63156 8.2345 8.67873 7.07122C9.29337 6.72196 9.75 6.10894 9.75 5.402V5.402V5.402C9.75 4.8048 9.18424 4.3679 8.63079 4.59226C5.32942 5.93055 3 9.17695 3 12.9693C3 17.9571 7.02944 22.0004 12 22.0004C16.9706 22.0004 21 17.9571 21 12.9693C21 9.29965 18.8189 6.14119 15.6866 4.7281C14.9828 4.41063 14.25 4.97522 14.25 5.74724V5.74724C14.25 6.24723 14.57 6.68403 15.0168 6.90842C17.2303 8.01997 18.75 10.3165 18.75 12.9693Z" fill="currentColor"/>
<path fill-rule="evenodd" clip-rule="evenodd" d="M12 2C12.6213 2 13.125 2.3731 13.125 2.83333V11.7222C13.125 12.1825 12.6213 12.5556 12 12.5556C11.3787 12.5556 10.875 12.1825 10.875 11.7222V2.83333C10.875 2.3731 11.3787 2 12 2Z" fill="currentColor"/>
</svg>
